{"title":"The Last Witch Hunter 2015 TS XViD MP3 Idiocracy","uid":12667164,"size":667172696,"categoryP":"video","categoryS":"movies","magnet":"?xt=urn:btih:3e410f3a2674095e65814125f2628266250d9b16&amp;dn=The+Last+Witch+Hunter+2015+TS+XViD+MP3+Idiocracy&amp;tr=udp%3A%2F%2Ftracker.leechers-paradise.org%3A6969&amp;tr=udp%3A%2F%2Fzer0day.ch%3A1337&amp;tr=udp%3A%2F%2Fopen.demonii.com%3A1337&amp;tr=udp%3A%2F%2Ftracker.coppersurfer.tk%3A6969&amp;tr=udp%3A%2F%2Fexodus.desync.com%3A6969","seeders":0,"leechers":0,"uploader":"Satafakap","files":2,"time":1446377613,"description":"Synopsis / Plot\r\n\r\nThe last witch hunter is all that stands between humanity and the combined forces of the most horrifying witches in history.\r\n\r\nDirector: Breck Eisner\r\nWriters: Cory Goodman, Matt Sazama\r\nStars: Vin Diesel, Rose Leslie, Elijah Wood \r\n \nhttp://www.imdb.com/title/tt1618442/\r\n\r\nGeneral\r\n\r\nComplete name       : The.Last.Witch.Hunter.2015.TS.XViD.MP3-Idiocracy.avi\r\nFormat              : AVI\r\nFormat/Info         : Audio Video Interleave\r\nFile size           : 629 MiB\r\nDuration            : 1h 36mn\r\nOverall bit rate    : 907 Kbps\r\nWriting application : VirtualDubMod 1.5.10.3 | www.virtualdub-fr.org\r\nWriting library     : VirtualDubMod build 2550/release\r\nSource              : The.Last.Witch.Hunter.2015.HD-TS.XVID.AC3.HQ.Hive-CM8 - Thanks!\r\nSample              : Yes\r\n\r\nVideo\r\n\r\nID                                       : 0\r\nFormat                                   : MPEG-4 Visual\r\nFormat profile                           : Advanced   \r\nFormat settings, BVOP                    : 2\r\nFormat settings, QPel                    : No\r\nFormat settings, GMC                     : No warppoints\r\nFormat settings, Matrix                  : Default (H.263)\r\nMuxing mode                              : Packed bitstream\r\nCodec ID                                 : XVID\r\nCodec ID/Hint                            : XviD\r\nDuration                                 : 1h 36mn\r\nBit rate                                 : 770 Kbps\r\nWidth                                    : 640 pixels\r\nHeight                                   : 240 pixels\r\nDisplay aspect ratio                     : 2.667\r\nFrame rate                               : 25.000 fps\r\nColor space                              : YUV\r\nChroma subsampling                       : 4:2:0\r\nBit depth                                : 8 bits\r\nScan type                                : Progressive\r\nCompression mode                         : Lossy\r\nBits/(Pixel*Frame)                       : 0.200\r\nStream size                              : 533 MiB (85%)\r\nWriting library                          : XviD 64\r\n\r\nAudio\r\n\r\nID                                       : 1\r\nFormat                                   : MPEG Audio\r\nFormat version                           : Version 1\r\nFormat profile                           : Layer 3\r\nMode                                     : Joint stereo\r\nMode extension                           : MS Stereo\r\nCodec ID                                 : 55\r\nCodec ID/Hint                            : MP3\r\nDuration                                 : 1h 36mn\r\nBit rate mode                            : Constant\r\nBit rate                                 : 128 Kbps\r\nChannel(s)                               : 2 channels\r\nSampling rate                            : 48.0 KHz\r\nCompression mode                         : Lossy\r\nStream size                              : 88.7 MiB (14%)\r\nAlignment                                : Split accross interleaves\r\nInterleave, duration                     : 40 ms (1.00 video frame)\r\nInterleave, preload duration             : 500 ms\r\n\r\n\r\n\r\n\r\nScreenshots:\r\n \nhttp://i.imgur.com/cfSZfWU.jpg\r\n \nhttp://i.imgur.com/gS5xpKQ.jpg\r\n \nhttp://i.imgur.com/E33kl4N.jpg\r\n \nhttp://i.imgur.com/XDDBlGz.jpg\r\n \nhttp://i.imgur.com/L1csza6.jpg","torrent":{"xt":"urn:btih:3e410f3a2674095e65814125f2628266250d9b16","amp;dn":"The+Last+Witch+Hunter+2015+TS+XViD+MP3+Idiocracy","amp;tr":["udp%3A%2F%2Ftracker.leechers-paradise.org%3A6969","udp%3A%2F%2Fzer0day.ch%3A1337","udp%3A%2F%2Fopen.demonii.com%3A1337","udp%3A%2F%2Ftracker.coppersurfer.tk%3A6969","udp%3A%2F%2Fexodus.desync.com%3A6969"],"infoHash":"3e410f3a2674095e65814125f2628266250d9b16","infoHashBuffer":{"type":"Buffer","data":[62,65,15,58,38,116,9,94,101,129,65,37,242,98,130,102,37,13,155,22]},"announce":[],"urlList":[]}}